<?xml version="1.0" encoding="UTF-8" standalone="no"?>
<svg width="71px" height="55px" viewBox="0 0 71 55" version="1.1" xmlns="http://www.w3.org/2000/svg" xmlns:xlink="http://www.w3.org/1999/xlink">
    <!-- Generator: Sketch 44 (41411) - http://www.bohemiancoding.com/sketch -->
    <title>Breakup Survival Guide</title>
    <desc>Breakup Survival Guide</desc>
    <defs>
        <path d="M28.2289584,17.2636728 L31.7950917,9.23364779 C28.9432612,4.00176302 23.485936,0.461372128 17.2175,0.461372128 C8.00148443,0.461372128 0.529272751,8.10931215 0.529272751,17.5444814 C0.529272751,36.7837254 29.6586333,53.3778623 31.7262388,54.5319307 L28.2300277,39.3198125 L35.4117889,28.8175705 L28.2289584,17.2636728 Z" id="path-1"></path>
        <path d="M18.7112887,0.460323356 C12.4030413,0.460323356 6.91452747,4.04362649 4.07668313,9.32945308 C4.05947205,9.29641677 4.03902747,9.26558289 4.02073855,9.23254658 L0.454605301,17.2625716 L7.63636651,28.8153681 L0.454605301,39.3176101 L3.95081639,54.5297282 C4.02719699,54.5726754 4.0756053,54.5991045 4.0756053,54.5991045 C4.0756053,54.5991045 35.3973665,37.4896011 35.3973665,17.542279 C35.3995136,8.10931215 27.9273025,0.460323356 18.7112887,0.460323356 Z" id="path-3"></path>
    </defs>
    <g id="Symbols" stroke="none" stroke-width="1" fill="none" fill-rule="evenodd">
        <g id="Page-1" transform="translate(-7.000000, -21.000000)">
            <g transform="translate(7.000000, 21.000000)">
                <g id="Group-3">
                    <mask id="mask-2" fill="white">
                        <use xlink:href="#path-1"></use>
                    </mask>
                    <g id="Clip-2"></g>
                    <polygon id="Fill-1" fill="#68D2BA" mask="url(#mask-2)" points="-3.74783594 -3.90850974 39.6888973 -3.90850974 39.6888973 58.9018125 -3.74783594 58.9018125"></polygon>
                </g>
                <g id="Group-6" transform="translate(35.000000, 0.000000)">
                    <mask id="mask-4" fill="white">
                        <use xlink:href="#path-3"></use>
                    </mask>
                    <g id="Clip-5"></g>
                    <polygon id="Fill-4" fill="#68D2BA" mask="url(#mask-4)" points="-3.82250313 -3.90955851 39.6744749 -3.90955851 39.6744749 58.9689864 -3.82250313 58.9689864"></polygon>
                </g>
            </g>
        </g>
    </g>
</svg>